<?xml version="1.0" encoding="UTF-8" standalone="no"?><!DOCTYPE svg PUBLIC "-//W3C//DTD SVG 1.1//EN" "http://www.w3.org/Graphics/SVG/1.1/DTD/svg11.dtd"><svg width="100%" height="100%" viewBox="0 0 767 134" version="1.1" xmlns="http://www.w3.org/2000/svg" xmlns:xlink="http://www.w3.org/1999/xlink" xml:space="preserve" xmlns:serif="http://www.serif.com/" style="fill-rule:evenodd;clip-rule:evenodd;stroke-linejoin:round;stroke-miterlimit:2;"><g><clipPath id="_clip1"><rect x="0" y="0" width="766.667" height="133.333"/></clipPath><g clip-path="url(#_clip1)"><path d="M207.413,43.375c-8.271,0 -14.838,3.042 -18.85,9.367l-0,-32.117l-13.134,-0l0,85.154l13.133,0l0,-32.6c0,-12.408 6.809,-17.516 15.442,-17.516c8.271,-0 13.625,4.862 13.625,14.108l0,36.008l13.129,0l0,-37.346c0,-15.812 -9.725,-25.058 -23.346,-25.058Zm44.788,37.588l48.4,-0c0.242,-1.705 0.488,-3.65 0.488,-5.475c-0,-17.517 -12.405,-32.113 -30.525,-32.113c-19.092,0 -32.105,13.988 -32.105,31.992c0,18.25 13.013,31.991 33.075,31.991c11.917,0 21.042,-4.987 26.634,-13.258l-10.821,-6.325c-2.917,4.258 -8.392,7.542 -15.688,7.542c-9.729,-0 -17.391,-4.867 -19.458,-14.355Zm-0.125,-10.708c1.825,-9.121 8.517,-14.958 18.367,-14.958c7.904,-0 15.562,4.5 17.387,14.958l-35.754,0Zm105.329,-25.3l0,8.638c-4.625,-6.325 -11.796,-10.217 -21.283,-10.217c-16.542,-0 -30.279,13.867 -30.279,31.992c-0,18 13.741,31.991 30.279,31.991c9.487,0 16.662,-3.891 21.283,-10.337l0,8.758l13.134,0l-0,-60.825l-13.134,0Zm-19.216,49.879c-10.942,0 -19.213,-8.154 -19.213,-19.466c0,-11.313 8.271,-19.463 19.213,-19.463c10.945,0 19.216,8.15 19.216,19.463c0,11.312 -8.271,19.462 -19.216,19.462l-0,0.004Zm92.775,-74.208l-0,32.967c-4.621,-6.325 -11.796,-10.217 -21.284,-10.217c-16.537,0 -30.279,13.867 -30.279,31.992c0,18 13.742,31.991 30.279,31.991c9.488,0 16.663,-3.891 21.284,-10.337l-0,8.758l13.133,0l-0,-85.154l-13.133,0Zm-19.213,74.208c-10.946,0 -19.217,-8.154 -19.217,-19.466c0,-11.313 8.271,-19.463 19.217,-19.463c10.942,0 19.213,8.15 19.213,19.463c-0,11.312 -8.271,19.462 -19.213,19.462l0,0.004Zm44.613,10.946l13.137,0l0,-88.8l-13.137,0l-0,88.8Zm35.683,-24.816l48.4,-0c0.242,-1.705 0.487,-3.65 0.487,-5.475c0,-17.517 -12.404,-32.113 -30.525,-32.113c-19.091,0 -32.104,13.988 -32.104,31.992c0,18.25 13.013,31.991 33.075,31.991c11.917,0 21.038,-4.987 26.634,-13.258l-10.825,-6.325c-2.917,4.258 -8.388,7.542 -15.688,7.542c-9.725,-0 -17.387,-4.867 -19.454,-14.355Zm-0.125,-10.708c1.825,-9.121 8.517,-14.958 18.367,-14.958c7.904,-0 15.562,4.5 17.387,14.958l-35.754,0Zm66.946,-8.512c-0,-4.375 4.137,-6.446 8.879,-6.446c4.987,-0 9.241,2.187 11.433,6.933l11.067,-6.204c-4.258,-8.029 -12.529,-12.65 -22.5,-12.65c-12.404,-0 -22.254,7.175 -22.254,18.612c-0,21.771 32.712,15.692 32.712,26.517c0,4.867 -4.5,6.813 -10.337,6.813c-6.688,-0 -11.55,-3.284 -13.496,-8.759l-11.313,6.567c3.892,8.758 12.65,14.233 24.809,14.233c13.133,0 23.716,-6.566 23.716,-18.733c0,-22.5 -32.716,-15.812 -32.716,-26.883Zm49.333,-0c0,-4.375 4.138,-6.446 8.879,-6.446c4.984,-0 9.242,2.187 11.429,6.933l11.067,-6.204c-4.254,-8.029 -12.525,-12.65 -22.496,-12.65c-12.404,-0 -22.254,7.175 -22.254,18.612c0,21.771 32.712,15.692 32.712,26.517c0,4.867 -4.5,6.813 -10.337,6.813c-6.687,-0 -11.554,-3.284 -13.5,-8.759l-11.308,6.567c3.891,8.758 12.645,14.233 24.808,14.233c13.133,0 23.713,-6.566 23.713,-18.733c-0,-22.5 -32.713,-15.812 -32.713,-26.883Zm100.175,30.008c9.113,0 15.858,-5.45 15.858,-14.387l0,-27.876l-8.166,0.001l-0,27.225c-0,4.025 -2.129,7.041 -7.692,7.041c-5.562,0 -7.696,-3.016 -7.696,-7.041l0,-27.23l-8.104,0l0,27.88c0,8.937 6.746,14.383 15.8,14.383l0,0.004Zm24.396,-42.267l-0,41.438l8.167,-0l-0,-41.438l-8.167,0Z" style="fill:#444;fill-rule:nonzero;"/><path d="M737.692,29.613l-42.267,-0c-9.275,0.002 -16.906,7.633 -16.908,16.908l-0,42.283c0.002,9.275 7.633,16.906 16.908,16.909l42.267,-0c9.274,-0.003 16.906,-7.634 16.908,-16.909c0,0 0,-42.282 0,-42.283c0,-9.277 -7.632,-16.91 -16.908,-16.913l-0,0.005Zm-42.267,-8.459c-13.912,0.002 -25.358,11.451 -25.358,25.363c-0,0.002 -0,0.005 -0,0.008c-0,0 -0,42.282 -0,42.283c-0,13.912 11.446,25.361 25.358,25.363l42.267,-0c13.913,-0 25.362,-11.449 25.362,-25.363c0,-0.001 0,-42.283 0,-42.283c0,-0.003 0,-0.006 0,-0.008c0,-13.914 -11.449,-25.363 -25.362,-25.363l-42.267,0Z" style="fill:#444;"/><path d="M695.425,29.613l42.267,-0c9.274,0.002 16.906,7.633 16.908,16.908l-0,42.283c-0.002,9.275 -7.634,16.906 -16.908,16.909l-42.267,-0c-9.275,-0.003 -16.906,-7.634 -16.908,-16.909c-0,0 -0,-42.282 -0,-42.283c-0,-9.277 7.632,-16.91 16.908,-16.913l-0,0.005Zm-25.358,59.195l-0,-42.291c-0,-13.912 11.446,-25.361 25.358,-25.363l42.267,0c13.913,0 25.362,11.449 25.362,25.363c0,0.002 0,0.005 0,0.008c0,0 0,42.282 0,42.283c0,13.914 -11.449,25.363 -25.362,25.363l-42.267,-0c-13.912,-0.002 -25.358,-11.451 -25.358,-25.363Z" style="fill:#444;"/><g><path d="M105.165,45.517l-75.831,26.372c-0.384,9.73 2.434,20.452 3.775,25.635c1.446,5.575 2.592,7.067 3.042,7.584c1.568,1.795 3.521,3.213 5.713,4.15c0.633,0.271 2.408,0.9 8.15,0.554c6.075,-0.367 14.05,-1.608 26.679,-3.608c12.625,-2 20.596,-3.288 26.483,-4.813c5.571,-1.446 7.067,-2.596 7.583,-3.046c1.792,-1.571 3.209,-3.521 4.146,-5.712c0.271,-0.634 0.9,-2.409 0.554,-8.154c-0.366,-6.075 -2.219,-16.588 -4.219,-29.217c-0.559,-3.541 -5.605,-6.883 -6.075,-9.745Z" style="fill:#f60a49;fill-opacity:0.55;fill-rule:nonzero;"/><path d="M105.165,45.517c0.47,2.862 5.516,6.204 6.075,9.745c2,12.629 3.853,23.142 4.219,29.217c0.346,5.745 -0.283,7.52 -0.554,8.154c-0.937,2.191 -2.354,4.141 -4.146,5.712c-0.516,0.45 -2.012,1.6 -7.583,3.046c-5.887,1.525 -13.858,2.813 -26.483,4.813c-12.629,2 -20.604,3.241 -26.679,3.608c-5.742,0.346 -7.517,-0.283 -8.15,-0.554c-2.192,-0.937 -4.145,-2.355 -5.713,-4.15c-0.45,-0.517 -1.596,-2.009 -3.042,-7.584c-1.341,-5.183 -4.159,-15.905 -3.775,-25.635l75.831,-26.372Zm-1.975,5.098c-0,-0 -69.714,24.245 -69.714,24.246c0.188,8.459 2.516,17.173 3.667,21.617c1.108,4.275 1.803,5.493 2.149,5.892c1.156,1.321 2.595,2.366 4.209,3.056c0.486,0.208 1.858,0.492 6.262,0.227c5.984,-0.361 13.838,-1.595 26.278,-3.565c12.436,-1.97 20.29,-3.228 26.089,-4.73c4.265,-1.107 5.489,-1.805 5.89,-2.152c1.319,-1.159 2.363,-2.596 3.054,-4.212c0.208,-0.486 0.492,-1.858 0.226,-6.265c-0.361,-5.992 -2.203,-16.36 -4.176,-28.816c-0.074,-0.473 -0.415,-0.895 -0.74,-1.349c-0.671,-0.935 -1.494,-1.843 -2.233,-2.725c-0.341,-0.408 -0.663,-0.816 -0.961,-1.224Z" style="fill:#f60a49;"/><path d="M29.888,82.14l81.333,-27.159c-1.625,-10.166 -2.783,-16.958 -4.125,-22.141c-1.446,-5.575 -2.592,-7.067 -3.042,-7.584c-1.568,-1.795 -3.52,-3.213 -5.712,-4.15c-0.633,-0.271 -2.408,-0.9 -8.15,-0.554c-6.075,0.367 -14.05,1.608 -26.679,3.608c-12.625,2 -20.596,3.288 -26.484,4.813c-5.57,1.446 -7.066,2.596 -7.583,3.046c-1.792,1.571 -3.208,3.521 -4.146,5.712c-0.271,0.634 -0.9,2.409 -0.554,8.154c0.367,6.075 1.608,14.055 3.608,26.684c0.559,3.541 1.063,6.708 1.534,9.571Z" style="fill:url(#_Linear2);fill-rule:nonzero;"/><path d="M7.463,75.877c-3.867,-24.433 -5.804,-36.65 -1.613,-46.458c2.185,-5.116 5.495,-9.673 9.684,-13.334c8.029,-7.012 20.241,-8.945 44.666,-12.816c24.434,-3.875 36.65,-5.809 46.459,-1.617c5.112,2.186 9.667,5.496 13.325,9.683c7.016,8.034 8.95,20.25 12.816,44.688c3.871,24.433 5.804,36.654 1.613,46.458c-2.184,5.115 -5.492,9.673 -9.679,13.334c-8.03,7.016 -20.246,8.95 -44.675,12.82c-24.425,3.871 -36.642,5.805 -46.446,1.613c-5.113,-2.186 -9.667,-5.496 -13.325,-9.683c-7.017,-8.034 -8.95,-20.25 -12.821,-44.688l-0.004,0Zm43.087,43.392c6.542,-0.396 14.967,-1.717 27.438,-3.692c12.475,-1.975 20.887,-3.325 27.237,-4.971c6.146,-1.596 8.979,-3.15 10.809,-4.75c2.691,-2.353 4.817,-5.283 6.22,-8.571c0.959,-2.233 1.563,-5.408 1.18,-11.75c-0.396,-6.541 -1.717,-14.97 -3.692,-27.445c-1.975,-12.475 -3.321,-20.896 -4.967,-27.242c-1.596,-6.15 -3.154,-8.983 -4.75,-10.813c-2.351,-2.692 -5.28,-4.82 -8.566,-6.225c-2.234,-0.958 -5.409,-1.562 -11.75,-1.179c-6.542,0.396 -14.963,1.717 -27.434,3.692c-4.276,0.678 -8.075,1.282 -11.478,1.849c-6.523,1.088 -11.589,2.04 -15.759,3.122c-6.15,1.596 -8.979,3.154 -10.809,4.75c-2.692,2.353 -4.82,5.282 -6.225,8.571c-0.954,2.233 -1.558,5.408 -1.175,11.75c0.396,6.545 1.713,14.97 3.692,27.445c1.975,12.475 3.321,20.896 4.967,27.242c1.596,6.15 3.15,8.983 4.75,10.813c2.351,2.692 5.28,4.819 8.566,6.225c2.234,0.958 5.405,1.562 11.75,1.179l-0.004,-0Z" style="fill:url(#_Linear3);"/></g><g><path d="M57.235,84.64l-0,7.495l-3.626,-0l0,-13.233l3.504,0l0.024,3.382l-0.439,-0c0.382,-1.14 0.946,-2.025 1.69,-2.655c0.745,-0.631 1.699,-0.946 2.863,-0.946c0.928,-0 1.737,0.201 2.429,0.604c0.692,0.403 1.227,0.985 1.605,1.746c0.379,0.76 0.568,1.682 0.568,2.764l-0,8.338l-3.626,-0l0,-7.691c0,-0.854 -0.211,-1.513 -0.634,-1.977c-0.424,-0.464 -1.018,-0.696 -1.783,-0.696c-0.504,0 -0.95,0.106 -1.336,0.317c-0.387,0.212 -0.69,0.531 -0.91,0.959c-0.219,0.427 -0.329,0.958 -0.329,1.593Z" style="fill:#444;fill-rule:nonzero;"/><path d="M74.727,97.457c-1.18,0 -2.193,-0.159 -3.039,-0.476c-0.846,-0.317 -1.522,-0.763 -2.027,-1.337c-0.504,-0.573 -0.838,-1.235 -1,-1.983l3.332,-0.391c0.098,0.293 0.265,0.555 0.501,0.787c0.236,0.232 0.539,0.415 0.909,0.55c0.37,0.134 0.812,0.201 1.324,0.201c0.904,0 1.606,-0.23 2.106,-0.69c0.501,-0.459 0.751,-1.145 0.751,-2.056l-0,-2.21l-0.134,0c-0.212,0.44 -0.491,0.824 -0.837,1.154c-0.345,0.329 -0.765,0.586 -1.257,0.769c-0.492,0.183 -1.06,0.274 -1.703,0.274c-1.074,0 -2.03,-0.262 -2.868,-0.787c-0.839,-0.525 -1.498,-1.28 -1.978,-2.264c-0.48,-0.985 -0.72,-2.165 -0.72,-3.54c-0,-1.4 0.244,-2.607 0.732,-3.62c0.488,-1.013 1.152,-1.792 1.99,-2.337c0.838,-0.546 1.782,-0.818 2.832,-0.818c0.659,-0 1.235,0.101 1.727,0.305c0.493,0.203 0.918,0.478 1.276,0.824c0.358,0.346 0.651,0.73 0.879,1.153l0.073,0l0,-2.063l3.577,0l-0,12.903c-0,1.302 -0.273,2.37 -0.818,3.205c-0.545,0.834 -1.302,1.45 -2.271,1.849c-0.968,0.399 -2.087,0.598 -3.357,0.598Zm-0.048,-8.24c0.618,0 1.151,-0.152 1.599,-0.457c0.447,-0.306 0.791,-0.743 1.031,-1.313c0.24,-0.569 0.36,-1.245 0.36,-2.026c0,-0.781 -0.12,-1.459 -0.36,-2.033c-0.24,-0.573 -0.584,-1.019 -1.031,-1.336c-0.448,-0.318 -0.981,-0.476 -1.599,-0.476c-0.603,-0 -1.121,0.156 -1.557,0.47c-0.435,0.313 -0.769,0.757 -1.001,1.33c-0.232,0.574 -0.348,1.256 -0.348,2.045c0,0.789 0.116,1.469 0.348,2.039c0.232,0.569 0.566,1.005 1.001,1.306c0.436,0.301 0.954,0.451 1.557,0.451Z" style="fill:#444;fill-rule:nonzero;"/><path d="M82.882,92.135l5.237,-7.862l-0.037,2.149l-4.907,-7.52l3.943,0l1.184,1.966c0.358,0.618 0.687,1.222 0.988,1.812c0.302,0.59 0.607,1.17 0.916,1.74l-1.257,-0c0.317,-0.57 0.626,-1.15 0.927,-1.74c0.301,-0.59 0.635,-1.194 1.001,-1.812l1.221,-1.966l3.87,0l-5.005,7.532l0.036,-2.136l5.176,7.837l-3.943,-0l-1.391,-2.246c-0.358,-0.602 -0.69,-1.195 -0.995,-1.776c-0.305,-0.582 -0.613,-1.154 -0.922,-1.715l1.172,-0c-0.309,0.561 -0.612,1.133 -0.909,1.715c-0.297,0.581 -0.629,1.174 -0.995,1.776l-1.392,2.246l-3.918,-0Z" style="fill:#444;fill-rule:nonzero;"/></g></g></g><defs><linearGradient id="_Linear2" x1="0" y1="0" x2="1" y2="0" gradientUnits="userSpaceOnUse" gradientTransform="matrix(21.1625,132.221,-132.221,21.1625,55.7003,-0.706319)"><stop offset="0" style="stop-color:#7103f4;stop-opacity:1"/><stop offset="0.2" style="stop-color:#a706af;stop-opacity:1"/><stop offset="0.42" style="stop-color:#dd0969;stop-opacity:1"/><stop offset="1" style="stop-color:#f60a49;stop-opacity:1"/></linearGradient><linearGradient id="_Linear3" x1="0" y1="0" x2="1" y2="0" gradientUnits="userSpaceOnUse" gradientTransform="matrix(133.278,0,0,133.312,3.49321,65.9501)"><stop offset="0" style="stop-color:#ff31d9;stop-opacity:1"/><stop offset="1" style="stop-color:#7103f4;stop-opacity:1"/></linearGradient></defs></svg>